<?xml version="1.0" encoding="UTF-8"?>
<svg width="1584" height="396" viewBox="0 0 1584 396" fill="none" xmlns="http://www.w3.org/2000/svg">
  <defs>
    <linearGradient id="bg" x1="0" y1="0" x2="1584" y2="396" gradientUnits="userSpaceOnUse">
      <stop stop-color="#f6f2e8"/>
      <stop offset="0.52" stop-color="#fffaf0"/>
      <stop offset="1" stop-color="#e9f5ea"/>
    </linearGradient>
    <linearGradient id="mark" x1="94" y1="120" x2="250" y2="276" gradientUnits="userSpaceOnUse">
      <stop stop-color="#0b0f14"/>
      <stop offset="0.48" stop-color="#12201b"/>
      <stop offset="1" stop-color="#d97706"/>
    </linearGradient>
    <radialGradient id="glow" cx="0" cy="0" r="1" gradientUnits="userSpaceOnUse" gradientTransform="translate(1235.52 71.28) rotate(134) scale(665.28 336.59999999999997)">
      <stop stop-color="#f59e0b" stop-opacity="0.38"/>
      <stop offset="1" stop-color="#f59e0b" stop-opacity="0"/>
    </radialGradient>
    <filter id="softShadow" x="-20%" y="-20%" width="140%" height="140%">
      <feDropShadow dx="0" dy="24" stdDeviation="28" flood-color="#0b0f14" flood-opacity="0.16"/>
    </filter>
  </defs>
  <rect width="1584" height="396" rx="44" fill="url(#bg)"/>
  <rect width="1584" height="396" fill="url(#glow)"/>
  <path d="M 1013.76 -40 C 1298.8799999999999 63.36 982.08 166.32 1644 213.84" stroke="#0b0f14" stroke-opacity="0.08" stroke-width="56" stroke-linecap="round"/>
  <path d="M 95.03999999999999 340.56 C 443.52000000000004 257.40000000000003 696.96 411.84000000000003 1235.52 304.92" stroke="#d97706" stroke-opacity="0.20" stroke-width="18" stroke-linecap="round"/>
  <g filter="url(#softShadow)">
    <rect x="72" y="98" width="200" height="200" rx="28.08" fill="#ffffff" fill-opacity="0.72"/>
    <svg x="94" y="120" width="156" height="156" viewBox="0 0 256 256">
      <path d="M 128.005 191.173 C 128.448 156.208 156.93 128 192 128 L 192 64 L 128 64 C 128 99.346 99.346 128 64 128 L 64 192 L 128 192 Z M 192 256 L 64 256 C 28.654 256 0 227.346 0 192 L 0 64 L 64 64 L 64 0 L 192 0 C 227.346 0 256 28.654 256 64 L 256 192 L 192 192 Z" fill="url(#mark)"/>
    </svg>
  </g>
  <text x="292" y="180" font-family="Inter, Avenir, Helvetica, Arial, sans-serif" font-size="88" font-weight="800" letter-spacing="-0.075em" fill="#0b0f14">ArcPay</text>
  <text x="296" y="240" font-family="Inter, Avenir, Helvetica, Arial, sans-serif" font-size="27" font-weight="600" letter-spacing="-0.02em" fill="#53606a">Policy-first payments for AI agents on Solana</text>
  <g transform="translate(296 318)">
    <rect width="438" height="48" rx="24" fill="#0b0f14"/>
    <text x="24" y="32" font-family="Inter, Avenir, Helvetica, Arial, sans-serif" font-size="18" font-weight="700" letter-spacing="0.08em" fill="#ffffff">PRIVATE TREASURY • X402 • DEFI</text>
  </g>
</svg>