<?xml version="1.0" encoding="UTF-8"?>
<svg width="1024" height="1024" viewBox="0 0 1024 1024" fill="none" xmlns="http://www.w3.org/2000/svg">
  <defs>
    <linearGradient id="bg" x1="0" y1="0" x2="1024" y2="1024" gradientUnits="userSpaceOnUse">
      <stop stop-color="#f6f2e8"/>
      <stop offset="0.52" stop-color="#fffaf0"/>
      <stop offset="1" stop-color="#e9f5ea"/>
    </linearGradient>
    <linearGradient id="mark" x1="307" y1="307" x2="717" y2="717" gradientUnits="userSpaceOnUse">
      <stop stop-color="#0b0f14"/>
      <stop offset="0.48" stop-color="#12201b"/>
      <stop offset="1" stop-color="#d97706"/>
    </linearGradient>
    <radialGradient id="glow" cx="0" cy="0" r="1" gradientUnits="userSpaceOnUse" gradientTransform="translate(798.72 184.32) rotate(134) scale(430.08 870.4)">
      <stop stop-color="#f59e0b" stop-opacity="0.38"/>
      <stop offset="1" stop-color="#f59e0b" stop-opacity="0"/>
    </radialGradient>
    <filter id="softShadow" x="-20%" y="-20%" width="140%" height="140%">
      <feDropShadow dx="0" dy="24" stdDeviation="28" flood-color="#0b0f14" flood-opacity="0.16"/>
    </filter>
  </defs>
  <rect width="1024" height="1024" rx="44" fill="url(#bg)"/>
  <rect width="1024" height="1024" fill="url(#glow)"/>
  <path d="M 655.36 -40 C 839.68 163.84 634.88 430.08 1084 552.96" stroke="#0b0f14" stroke-opacity="0.08" stroke-width="56" stroke-linecap="round"/>
  <path d="M 61.44 880.64 C 286.72 665.6 450.56 1064.96 798.72 788.48" stroke="#d97706" stroke-opacity="0.20" stroke-width="18" stroke-linecap="round"/>
  <g filter="url(#softShadow)">
    <rect x="285" y="285" width="454" height="454" rx="73.8" fill="#ffffff" fill-opacity="0.72"/>
    <svg x="307" y="307" width="410" height="410" viewBox="0 0 256 256">
      <path d="M 128.005 191.173 C 128.448 156.208 156.93 128 192 128 L 192 64 L 128 64 C 128 99.346 99.346 128 64 128 L 64 192 L 128 192 Z M 192 256 L 64 256 C 28.654 256 0 227.346 0 192 L 0 64 L 64 64 L 64 0 L 192 0 C 227.346 0 256 28.654 256 64 L 256 192 L 192 192 Z" fill="url(#mark)"/>
    </svg>
  </g>
  
</svg>