<?xml version="1.0" encoding="UTF-8"?>
<svg width="800" height="800" viewBox="0 0 800 800" fill="none" xmlns="http://www.w3.org/2000/svg">
  <defs>
    <linearGradient id="bg" x1="0" y1="0" x2="800" y2="800" gradientUnits="userSpaceOnUse">
      <stop stop-color="#080b0f"/>
      <stop offset="0.52" stop-color="#101820"/>
      <stop offset="1" stop-color="#17231c"/>
    </linearGradient>
    <linearGradient id="mark" x1="195" y1="195" x2="605" y2="605" gradientUnits="userSpaceOnUse">
      <stop stop-color="#0b0f14"/>
      <stop offset="0.48" stop-color="#12201b"/>
      <stop offset="1" stop-color="#d97706"/>
    </linearGradient>
    <radialGradient id="glow" cx="0" cy="0" r="1" gradientUnits="userSpaceOnUse" gradientTransform="translate(624 144) rotate(134) scale(336 680)">
      <stop stop-color="#f59e0b" stop-opacity="0.38"/>
      <stop offset="1" stop-color="#f59e0b" stop-opacity="0"/>
    </radialGradient>
    <filter id="softShadow" x="-20%" y="-20%" width="140%" height="140%">
      <feDropShadow dx="0" dy="24" stdDeviation="28" flood-color="#0b0f14" flood-opacity="0.45"/>
    </filter>
  </defs>
  <rect width="800" height="800" rx="40" fill="url(#bg)"/>
  <rect width="800" height="800" fill="url(#glow)"/>
  <path d="M 512 -40 C 656 128 496 336 860 432" stroke="#f8f4e9" stroke-opacity="0.08" stroke-width="56" stroke-linecap="round"/>
  <path d="M 48 688 C 224.00000000000003 520 352 832 624 616" stroke="#d97706" stroke-opacity="0.20" stroke-width="18" stroke-linecap="round"/>
  <g filter="url(#softShadow)">
    <rect x="173" y="173" width="454" height="454" rx="73.8" fill="#f6f2e8" fill-opacity="0.08"/>
    <svg x="195" y="195" width="410" height="410" viewBox="0 0 256 256">
      <path d="M 128.005 191.173 C 128.448 156.208 156.93 128 192 128 L 192 64 L 128 64 C 128 99.346 99.346 128 64 128 L 64 192 L 128 192 Z M 192 256 L 64 256 C 28.654 256 0 227.346 0 192 L 0 64 L 64 64 L 64 0 L 192 0 C 227.346 0 256 28.654 256 64 L 256 192 L 192 192 Z" fill="url(#mark)"/>
    </svg>
  </g>
  
</svg>